<svg width="146" height="146" viewBox="0 0 146 146" fill="none" xmlns="http://www.w3.org/2000/svg">
<path d="M145.333 72.6667C145.333 32.5329 112.8 0 72.6667 0C32.5329 0 0 32.5329 0 72.6667L0 130.8C0 134.654 1.53119 138.351 4.25671 141.077C6.98224 143.802 10.6789 145.333 14.5333 145.333H72.6667C112.8 145.333 145.333 112.8 145.333 72.6667Z" fill="#2540FF"/>
<path d="M40.1233 105C39.4344 105 38.8396 104.75 38.3386 104.249C37.8377 103.748 37.5872 103.153 37.5872 102.464V41.7865C37.5872 41.0977 37.8377 40.5028 38.3386 40.0019C38.8396 39.5009 39.4344 39.2504 40.1233 39.2504H54.9639C56.2163 39.2504 57.1556 39.5948 57.7818 40.2836C58.408 40.9725 58.815 41.4734 59.0028 41.7865L72.6224 64.3293L86.242 41.7865C86.4299 41.4734 86.8369 40.9725 87.4631 40.2836C88.0893 39.5948 89.0286 39.2504 90.281 39.2504H105.122C105.81 39.2504 106.405 39.5009 106.906 40.0019C107.407 40.5028 107.658 41.0977 107.658 41.7865V102.464C107.658 103.153 107.407 103.748 106.906 104.249C106.405 104.75 105.81 105 105.122 105H88.1206C87.4318 105 86.8369 104.75 86.336 104.249C85.835 103.748 85.5845 103.153 85.5845 102.464V76.7278L79.3853 86.8721C79.0722 87.373 78.6339 87.9053 78.0703 88.4689C77.5693 88.9698 76.8492 89.2203 75.9099 89.2203H69.335C68.3957 89.2203 67.6442 88.9698 67.0807 88.4689C66.5797 87.9053 66.1727 87.373 65.8596 86.8721L59.6603 76.7278V102.464C59.6603 103.153 59.4099 103.748 58.9089 104.249C58.408 104.75 57.8131 105 57.1243 105H40.1233Z" fill="white" fill-opacity="0.8"/>
</svg>
